<?xml version="1.0" encoding="UTF-8" standalone="no"?>
<!DOCTYPE svg PUBLIC "-//W3C//DTD SVG 1.1//EN" "http://www.w3.org/Graphics/SVG/1.1/DTD/svg11.dtd">
<svg version="1.1" xmlns="http://www.w3.org/2000/svg" xmlns:xlink="http://www.w3.org/1999/xlink" preserveAspectRatio="xMidYMid meet" viewBox="0 0 600 600" width="600" height="600"><defs><path d="M16 300C16 456.74 143.26 584 300 584C456.74 584 584 456.74 584 300C584 143.26 456.74 16 300 16C143.26 16 16 143.26 16 300Z" id="c1wKHvUdTF"></path><path d="M167.5 300C167.5 373.13 226.87 432.5 300 432.5C373.13 432.5 432.5 373.13 432.5 300C432.5 226.87 373.13 167.5 300 167.5C226.87 167.5 167.5 226.87 167.5 300Z" id="h4TZDWE62Q"></path><path d="M600 16L0 16" id="e2DgKmANqG"></path><path d="M16 600L16 0" id="d22CcRTKWf"></path><path d="M600 584L0 584" id="c24eIslAXu"></path><path d="" id="e1GVfaNQH7"></path><path d="M584 0L584 600" id="a3BRGuANvk"></path><path d="M600 300L0 300" id="a1oblRnoae"></path><path d="M300 600L300 0" id="c1hXCOAUqe"></path><path d="M600 2.75L0 600" id="a1gdmTdyIA"></path><path d="" id="a1mZQVrH4"></path><path d="" id="a3f4fWXey"></path><path d="M600 600L0 2.75" id="h1OXn53EKg"></path><path d="M600 166L0 166" id="a1jfcfMrWK"></path><path d="M600 434L0 434" id="bs2E9fZGX"></path><path d="" id="a2ShTQK5mU"></path><path d="M166 600L166 0" id="c2b507U67Z"></path><path d="M434 600L434 0" id="aTJ1G4T8j"></path></defs><g><g><use xlink:href="#c1wKHvUdTF" opacity="1" fill="#dc301f" fill-opacity="0"></use><g><use xlink:href="#c1wKHvUdTF" opacity="1" fill-opacity="0" stroke="#000000" stroke-width="5" stroke-opacity="1"></use></g></g><g><use xlink:href="#h4TZDWE62Q" opacity="1" fill="#dc301f" fill-opacity="0"></use><g><use xlink:href="#h4TZDWE62Q" opacity="1" fill-opacity="0" stroke="#000000" stroke-width="5" stroke-opacity="1"></use></g></g><g><g><use xlink:href="#e2DgKmANqG" opacity="1" fill-opacity="0" stroke="#000000" stroke-width="5" stroke-opacity="1"></use></g></g><g><g><use xlink:href="#d22CcRTKWf" opacity="1" fill-opacity="0" stroke="#000000" stroke-width="5" stroke-opacity="1"></use></g></g><g><g><use xlink:href="#c24eIslAXu" opacity="1" fill-opacity="0" stroke="#000000" stroke-width="5" stroke-opacity="1"></use></g></g><g><g><use xlink:href="#e1GVfaNQH7" opacity="1" fill-opacity="0" stroke="#000000" stroke-width="5" stroke-opacity="1"></use></g></g><g><g><use xlink:href="#a3BRGuANvk" opacity="1" fill-opacity="0" stroke="#000000" stroke-width="5" stroke-opacity="1"></use></g></g><g><g><use xlink:href="#a1oblRnoae" opacity="1" fill-opacity="0" stroke="#000000" stroke-width="5" stroke-opacity="1"></use></g></g><g><g><use xlink:href="#c1hXCOAUqe" opacity="1" fill-opacity="0" stroke="#000000" stroke-width="5" stroke-opacity="1"></use></g></g><g><g><use xlink:href="#a1gdmTdyIA" opacity="1" fill-opacity="0" stroke="#000000" stroke-width="5" stroke-opacity="1"></use></g></g><g><g><use xlink:href="#a1mZQVrH4" opacity="1" fill-opacity="0" stroke="#000000" stroke-width="5" stroke-opacity="1"></use></g></g><g><g><use xlink:href="#a3f4fWXey" opacity="1" fill-opacity="0" stroke="#000000" stroke-width="5" stroke-opacity="1"></use></g></g><g><g><use xlink:href="#h1OXn53EKg" opacity="1" fill-opacity="0" stroke="#000000" stroke-width="5" stroke-opacity="1"></use></g></g><g><g><use xlink:href="#a1jfcfMrWK" opacity="1" fill-opacity="0" stroke="#000000" stroke-width="5" stroke-opacity="1"></use></g></g><g><g><use xlink:href="#bs2E9fZGX" opacity="1" fill-opacity="0" stroke="#000000" stroke-width="5" stroke-opacity="1"></use></g></g><g><g><use xlink:href="#a2ShTQK5mU" opacity="1" fill-opacity="0" stroke="#000000" stroke-width="5" stroke-opacity="1"></use></g></g><g><g><use xlink:href="#c2b507U67Z" opacity="1" fill-opacity="0" stroke="#000000" stroke-width="5" stroke-opacity="1"></use></g></g><g><g><use xlink:href="#aTJ1G4T8j" opacity="1" fill-opacity="0" stroke="#000000" stroke-width="5" stroke-opacity="1"></use></g></g></g></svg>